<svg width="24" height="24" viewBox="0 0 24 24" fill="none" xmlns="http://www.w3.org/2000/svg">
<path d="M3.39968 16.4001L1.09968 14.1501C0.899683 13.9501 0.799683 13.7168 0.799683 13.4501C0.799683 13.1835 0.899683 12.9501 1.09968 12.7501C2.56635 11.1668 4.25802 9.97929 6.17468 9.18762C8.09135 8.39596 10.033 8.00012 11.9997 8.00012C13.9664 8.00012 15.9039 8.39596 17.8122 9.18762C19.7205 9.97929 21.4164 11.1668 22.8997 12.7501C23.0997 12.9501 23.1997 13.1835 23.1997 13.4501C23.1997 13.7168 23.0997 13.9501 22.8997 14.1501L20.5997 16.4001C20.4164 16.5835 20.2039 16.6835 19.9622 16.7001C19.7205 16.7168 19.4997 16.6501 19.2997 16.5001L16.3997 14.3001C16.2664 14.2001 16.1664 14.0835 16.0997 13.9501C16.033 13.8168 15.9997 13.6668 15.9997 13.5001V10.6501C15.3664 10.4501 14.7164 10.2918 14.0497 10.1751C13.383 10.0585 12.6997 10.0001 11.9997 10.0001C11.2997 10.0001 10.6164 10.0585 9.94968 10.1751C9.28302 10.2918 8.63302 10.4501 7.99968 10.6501V13.5001C7.99968 13.6668 7.96635 13.8168 7.89968 13.9501C7.83302 14.0835 7.73302 14.2001 7.59968 14.3001L4.69968 16.5001C4.49968 16.6501 4.27885 16.7168 4.03718 16.7001C3.79552 16.6835 3.58302 16.5835 3.39968 16.4001ZM5.99968 11.4501C5.51635 11.7001 5.04968 11.9876 4.59968 12.3126C4.14968 12.6376 3.68302 13.0001 3.19968 13.4001L4.19968 14.4001L5.99968 13.0001V11.4501ZM17.9997 11.5001V13.0001L19.7997 14.4001L20.7997 13.4501C20.3164 13.0168 19.8497 12.6418 19.3997 12.3251C18.9497 12.0085 18.483 11.7335 17.9997 11.5001Z" />
</svg>
