<svg width="40" height="40" viewBox="0 0 40 40" fill="none" xmlns="http://www.w3.org/2000/svg">
<g clip-path="url(#clip0_7_58213)">
<path d="M0 16C0 10.3995 0 7.59921 1.08993 5.46009C2.04867 3.57847 3.57847 2.04867 5.46009 1.08993C7.59921 0 10.3995 0 16 0H24C29.6005 0 32.4008 0 34.5399 1.08993C36.4215 2.04867 37.9513 3.57847 38.9101 5.46009C40 7.59921 40 10.3995 40 16V24C40 29.6005 40 32.4008 38.9101 34.5399C37.9513 36.4215 36.4215 37.9513 34.5399 38.9101C32.4008 40 29.6005 40 24 40H16C10.3995 40 7.59921 40 5.46009 38.9101C3.57847 37.9513 2.04867 36.4215 1.08993 34.5399C0 32.4008 0 29.6005 0 24V16Z" fill="#D6331F"/>
<mask id="mask0_7_58213" style="mask-type:alpha" maskUnits="userSpaceOnUse" x="8" y="8" width="24" height="24">
<rect x="8" y="8" width="24" height="24" fill="#D9D9D9"/>
</mask>
<g mask="url(#mask0_7_58213)">
<path d="M11.3996 24.4001L9.09956 22.1501C8.89956 21.9501 8.79956 21.7168 8.79956 21.4501C8.79956 21.1835 8.89956 20.9501 9.09956 20.7501C10.5662 19.1668 12.2579 17.9793 14.1746 17.1876C16.0912 16.396 18.0329 16.0001 19.9996 16.0001C21.9662 16.0001 23.9037 16.396 25.8121 17.1876C27.7204 17.9793 29.4162 19.1668 30.8996 20.7501C31.0996 20.9501 31.1996 21.1835 31.1996 21.4501C31.1996 21.7168 31.0996 21.9501 30.8996 22.1501L28.5996 24.4001C28.4162 24.5835 28.2037 24.6835 27.9621 24.7001C27.7204 24.7168 27.4996 24.6501 27.2996 24.5001L24.3996 22.3001C24.2662 22.2001 24.1662 22.0835 24.0996 21.9501C24.0329 21.8168 23.9996 21.6668 23.9996 21.5001V18.6501C23.3662 18.4501 22.7162 18.2918 22.0496 18.1751C21.3829 18.0585 20.6996 18.0001 19.9996 18.0001C19.2996 18.0001 18.6162 18.0585 17.9496 18.1751C17.2829 18.2918 16.6329 18.4501 15.9996 18.6501V21.5001C15.9996 21.6668 15.9662 21.8168 15.8996 21.9501C15.8329 22.0835 15.7329 22.2001 15.5996 22.3001L12.6996 24.5001C12.4996 24.6501 12.2787 24.7168 12.0371 24.7001C11.7954 24.6835 11.5829 24.5835 11.3996 24.4001ZM13.9996 19.4501C13.5162 19.7001 13.0496 19.9876 12.5996 20.3126C12.1496 20.6376 11.6829 21.0001 11.1996 21.4001L12.1996 22.4001L13.9996 21.0001V19.4501ZM25.9996 19.5001V21.0001L27.7996 22.4001L28.7996 21.4501C28.3162 21.0168 27.8496 20.6418 27.3996 20.3251C26.9496 20.0085 26.4829 19.7335 25.9996 19.5001Z" fill="white"/>
</g>
</g>
<defs>
<clipPath id="clip0_7_58213">
<path d="M0 16C0 10.3995 0 7.59921 1.08993 5.46009C2.04867 3.57847 3.57847 2.04867 5.46009 1.08993C7.59921 0 10.3995 0 16 0H24C29.6005 0 32.4008 0 34.5399 1.08993C36.4215 2.04867 37.9513 3.57847 38.9101 5.46009C40 7.59921 40 10.3995 40 16V24C40 29.6005 40 32.4008 38.9101 34.5399C37.9513 36.4215 36.4215 37.9513 34.5399 38.9101C32.4008 40 29.6005 40 24 40H16C10.3995 40 7.59921 40 5.46009 38.9101C3.57847 37.9513 2.04867 36.4215 1.08993 34.5399C0 32.4008 0 29.6005 0 24V16Z" fill="white"/>
</clipPath>
</defs>
</svg>
