<svg width="16" height="16" viewBox="0 0 16 16" fill="none" xmlns="http://www.w3.org/2000/svg">
<path d="M8.00015 9.33337C9.10682 9.33337 10.0002 8.44004 10.0002 7.33337V3.33337C10.0002 2.22671 9.10682 1.33337 8.00015 1.33337C6.89349 1.33337 6.00015 2.22671 6.00015 3.33337V7.33337C6.00015 8.44004 6.89349 9.33337 8.00015 9.33337ZM11.9402 7.33337C11.6135 7.33337 11.3402 7.57337 11.2868 7.90004C11.0135 9.46671 9.64682 10.6667 8.00015 10.6667C6.35349 10.6667 4.98682 9.46671 4.71349 7.90004C4.66015 7.57337 4.38682 7.33337 4.06015 7.33337C3.65349 7.33337 3.33349 7.69337 3.39349 8.09337C3.72015 10.0934 5.32015 11.66 7.33349 11.9467V13.3334C7.33349 13.7 7.63349 14 8.00015 14C8.36682 14 8.66682 13.7 8.66682 13.3334V11.9467C10.6802 11.66 12.2802 10.0934 12.6068 8.09337C12.6735 7.69337 12.3468 7.33337 11.9402 7.33337Z" fill="#262842"/>
</svg>
