<svg width="40" height="40" viewBox="0 0 40 40" fill="none" xmlns="http://www.w3.org/2000/svg">
<path d="M0.5 16C0.5 13.1915 0.500389 11.1152 0.634581 9.47274C0.768297 7.83613 1.03237 6.67442 1.53544 5.68709C2.44624 3.89955 3.89955 2.44624 5.68709 1.53544C6.67441 1.03237 7.83613 0.768297 9.47274 0.634581C11.1152 0.500389 13.1915 0.5 16 0.5H24C26.8085 0.5 28.8848 0.500389 30.5273 0.634581C32.1639 0.768297 33.3256 1.03237 34.3129 1.53544C36.1004 2.44624 37.5538 3.89955 38.4646 5.68709C38.9676 6.67442 39.2317 7.83613 39.3654 9.47274C39.4996 11.1152 39.5 13.1915 39.5 16V24C39.5 26.8085 39.4996 28.8848 39.3654 30.5273C39.2317 32.1639 38.9676 33.3256 38.4646 34.3129C37.5538 36.1004 36.1004 37.5538 34.3129 38.4646C33.3256 38.9676 32.1639 39.2317 30.5273 39.3654C28.8848 39.4996 26.8085 39.5 24 39.5H16C13.1915 39.5 11.1152 39.4996 9.47274 39.3654C7.83613 39.2317 6.67442 38.9676 5.68709 38.4646C3.89955 37.5538 2.44624 36.1004 1.53544 34.3129C1.03237 33.3256 0.768297 32.1639 0.634581 30.5273C0.500389 28.8848 0.5 26.8085 0.5 24V16Z" fill="white"/>
<path d="M0.5 16C0.5 13.1915 0.500389 11.1152 0.634581 9.47274C0.768297 7.83613 1.03237 6.67442 1.53544 5.68709C2.44624 3.89955 3.89955 2.44624 5.68709 1.53544C6.67441 1.03237 7.83613 0.768297 9.47274 0.634581C11.1152 0.500389 13.1915 0.5 16 0.5H24C26.8085 0.5 28.8848 0.500389 30.5273 0.634581C32.1639 0.768297 33.3256 1.03237 34.3129 1.53544C36.1004 2.44624 37.5538 3.89955 38.4646 5.68709C38.9676 6.67442 39.2317 7.83613 39.3654 9.47274C39.4996 11.1152 39.5 13.1915 39.5 16V24C39.5 26.8085 39.4996 28.8848 39.3654 30.5273C39.2317 32.1639 38.9676 33.3256 38.4646 34.3129C37.5538 36.1004 36.1004 37.5538 34.3129 38.4646C33.3256 38.9676 32.1639 39.2317 30.5273 39.3654C28.8848 39.4996 26.8085 39.5 24 39.5H16C13.1915 39.5 11.1152 39.4996 9.47274 39.3654C7.83613 39.2317 6.67442 38.9676 5.68709 38.4646C3.89955 37.5538 2.44624 36.1004 1.53544 34.3129C1.03237 33.3256 0.768297 32.1639 0.634581 30.5273C0.500389 28.8848 0.5 26.8085 0.5 24V16Z" stroke="#D6331F"/>
<mask id="mask0_7_58212" style="mask-type:alpha" maskUnits="userSpaceOnUse" x="8" y="8" width="24" height="24">
<rect x="8" y="8" width="24" height="24" fill="#D9D9D9"/>
</mask>
<g mask="url(#mask0_7_58212)">
<path d="M25.7499 22.95L24.2999 21.5C24.5332 21.1167 24.7082 20.7167 24.8249 20.3C24.9416 19.8833 24.9999 19.45 24.9999 19H26.9999C26.9999 19.7333 26.8916 20.4292 26.6749 21.0875C26.4582 21.7458 26.1499 22.3667 25.7499 22.95ZM22.7999 19.95L20.9999 18.15V13C20.9999 12.7167 20.9041 12.4792 20.7124 12.2875C20.5207 12.0958 20.2832 12 19.9999 12C19.7166 12 19.4791 12.0958 19.2874 12.2875C19.0957 12.4792 18.9999 12.7167 18.9999 13V16.15L16.9999 14.15V13C16.9999 12.1667 17.2916 11.4583 17.8749 10.875C18.4582 10.2917 19.1666 10 19.9999 10C20.8332 10 21.5416 10.2917 22.1249 10.875C22.7082 11.4583 22.9999 12.1667 22.9999 13V19C22.9999 19.1833 22.9791 19.35 22.9374 19.5C22.8957 19.65 22.8499 19.8 22.7999 19.95ZM18.9999 29V25.925C17.2666 25.6917 15.8332 24.9167 14.6999 23.6C13.5666 22.2833 12.9999 20.75 12.9999 19H14.9999C14.9999 20.3833 15.4791 21.5625 16.4374 22.5375C17.3957 23.5125 18.5832 24 19.9999 24C20.5666 24 21.1041 23.9125 21.6124 23.7375C22.1207 23.5625 22.5832 23.3167 22.9999 23L24.4249 24.425C23.9416 24.8083 23.4124 25.1333 22.8374 25.4C22.2624 25.6667 21.6499 25.8417 20.9999 25.925V29H18.9999ZM27.7999 30.6L9.3999 12.2L10.7999 10.8L29.1999 29.2L27.7999 30.6Z" fill="#D6331F"/>
</g>
</svg>
