<svg width="40" height="40" viewBox="0 0 40 40" fill="none" xmlns="http://www.w3.org/2000/svg">
<path d="M0 16C0 10.3995 0 7.59921 1.08993 5.46009C2.04867 3.57847 3.57847 2.04867 5.46009 1.08993C7.59921 0 10.3995 0 16 0H24C29.6005 0 32.4008 0 34.5399 1.08993C36.4215 2.04867 37.9513 3.57847 38.9101 5.46009C40 7.59921 40 10.3995 40 16V24C40 29.6005 40 32.4008 38.9101 34.5399C37.9513 36.4215 36.4215 37.9513 34.5399 38.9101C32.4008 40 29.6005 40 24 40H16C10.3995 40 7.59921 40 5.46009 38.9101C3.57847 37.9513 2.04867 36.4215 1.08993 34.5399C0 32.4008 0 29.6005 0 24V16Z" fill="white"/>
<path d="M0.5 16C0.5 13.1915 0.500389 11.1152 0.634581 9.47274C0.768297 7.83613 1.03237 6.67442 1.53544 5.68709C2.44624 3.89955 3.89955 2.44624 5.68709 1.53544C6.67441 1.03237 7.83613 0.768297 9.47274 0.634581C11.1152 0.500389 13.1915 0.5 16 0.5H24C26.8085 0.5 28.8848 0.500389 30.5273 0.634581C32.1639 0.768297 33.3256 1.03237 34.3129 1.53544C36.1004 2.44624 37.5538 3.89955 38.4646 5.68709C38.9676 6.67442 39.2317 7.83613 39.3654 9.47274C39.4996 11.1152 39.5 13.1915 39.5 16V24C39.5 26.8085 39.4996 28.8848 39.3654 30.5273C39.2317 32.1639 38.9676 33.3256 38.4646 34.3129C37.5538 36.1004 36.1004 37.5538 34.3129 38.4646C33.3256 38.9676 32.1639 39.2317 30.5273 39.3654C28.8848 39.4996 26.8085 39.5 24 39.5H16C13.1915 39.5 11.1152 39.4996 9.47274 39.3654C7.83613 39.2317 6.67442 38.9676 5.68709 38.4646C3.89955 37.5538 2.44624 36.1004 1.53544 34.3129C1.03237 33.3256 0.768297 32.1639 0.634581 30.5273C0.500389 28.8848 0.5 26.8085 0.5 24V16Z" stroke="#262842" stroke-opacity="0.12"/>
<mask id="mask0_7_58151" style="mask-type:alpha" maskUnits="userSpaceOnUse" x="8" y="8" width="24" height="24">
<rect x="8" y="8" width="24" height="24" fill="#D9D9D9"/>
</mask>
<g mask="url(#mask0_7_58151)">
<path d="M19.9998 22.0001C19.1665 22.0001 18.4582 21.7085 17.8748 21.1251C17.2915 20.5418 16.9998 19.8335 16.9998 19.0001V13.0001C16.9998 12.1668 17.2915 11.4585 17.8748 10.8751C18.4582 10.2918 19.1665 10.0001 19.9998 10.0001C20.8332 10.0001 21.5415 10.2918 22.1248 10.8751C22.7082 11.4585 22.9998 12.1668 22.9998 13.0001V19.0001C22.9998 19.8335 22.7082 20.5418 22.1248 21.1251C21.5415 21.7085 20.8332 22.0001 19.9998 22.0001ZM18.9998 28.0001V25.9251C17.4665 25.7085 16.154 25.0585 15.0623 23.9751C13.9707 22.8918 13.3082 21.5751 13.0748 20.0251C13.0415 19.7418 13.1165 19.5001 13.2998 19.3001C13.4832 19.1001 13.7165 19.0001 13.9998 19.0001C14.2832 19.0001 14.5207 19.096 14.7123 19.2876C14.904 19.4793 15.0332 19.7168 15.0998 20.0001C15.3332 21.1668 15.9123 22.1251 16.8373 22.8751C17.7623 23.6251 18.8165 24.0001 19.9998 24.0001C21.1998 24.0001 22.2582 23.621 23.1748 22.8626C24.0915 22.1043 24.6665 21.1501 24.8998 20.0001C24.9665 19.7168 25.0957 19.4793 25.2873 19.2876C25.479 19.096 25.7165 19.0001 25.9998 19.0001C26.2832 19.0001 26.5165 19.1001 26.6998 19.3001C26.8832 19.5001 26.9582 19.7418 26.9248 20.0251C26.6915 21.5418 26.0332 22.8501 24.9498 23.9501C23.8665 25.0501 22.5498 25.7085 20.9998 25.9251V28.0001C20.9998 28.2835 20.904 28.521 20.7123 28.7126C20.5207 28.9043 20.2832 29.0001 19.9998 29.0001C19.7165 29.0001 19.479 28.9043 19.2873 28.7126C19.0957 28.521 18.9998 28.2835 18.9998 28.0001ZM19.9998 20.0001C20.2832 20.0001 20.5207 19.9043 20.7123 19.7126C20.904 19.521 20.9998 19.2835 20.9998 19.0001V13.0001C20.9998 12.7168 20.904 12.4793 20.7123 12.2876C20.5207 12.096 20.2832 12.0001 19.9998 12.0001C19.7165 12.0001 19.479 12.096 19.2873 12.2876C19.0957 12.4793 18.9998 12.7168 18.9998 13.0001V19.0001C18.9998 19.2835 19.0957 19.521 19.2873 19.7126C19.479 19.9043 19.7165 20.0001 19.9998 20.0001Z" fill="#262842"/>
</g>
</svg>
