<svg width="24" height="24" viewBox="0 0 24 24" fill="none" xmlns="http://www.w3.org/2000/svg">
<path d="M11.9998 14.0001C11.1665 14.0001 10.4582 13.7085 9.87483 13.1251C9.2915 12.5418 8.99983 11.8335 8.99983 11.0001V5.00012C8.99983 4.16679 9.2915 3.45846 9.87483 2.87512C10.4582 2.29179 11.1665 2.00012 11.9998 2.00012C12.8332 2.00012 13.5415 2.29179 14.1248 2.87512C14.7082 3.45846 14.9998 4.16679 14.9998 5.00012V11.0001C14.9998 11.8335 14.7082 12.5418 14.1248 13.1251C13.5415 13.7085 12.8332 14.0001 11.9998 14.0001ZM10.9998 20.0001V17.9251C9.4665 17.7085 8.154 17.0585 7.06233 15.9751C5.97066 14.8918 5.30816 13.5751 5.07483 12.0251C5.0415 11.7418 5.1165 11.5001 5.29983 11.3001C5.48316 11.1001 5.7165 11.0001 5.99983 11.0001C6.28316 11.0001 6.52066 11.096 6.71233 11.2876C6.904 11.4793 7.03316 11.7168 7.09983 12.0001C7.33316 13.1668 7.91233 14.1251 8.83733 14.8751C9.76233 15.6251 10.8165 16.0001 11.9998 16.0001C13.1998 16.0001 14.2582 15.621 15.1748 14.8626C16.0915 14.1043 16.6665 13.1501 16.8998 12.0001C16.9665 11.7168 17.0957 11.4793 17.2873 11.2876C17.479 11.096 17.7165 11.0001 17.9998 11.0001C18.2832 11.0001 18.5165 11.1001 18.6998 11.3001C18.8832 11.5001 18.9582 11.7418 18.9248 12.0251C18.6915 13.5418 18.0332 14.8501 16.9498 15.9501C15.8665 17.0501 14.5498 17.7085 12.9998 17.9251V20.0001C12.9998 20.2835 12.904 20.521 12.7123 20.7126C12.5207 20.9043 12.2832 21.0001 11.9998 21.0001C11.7165 21.0001 11.479 20.9043 11.2873 20.7126C11.0957 20.521 10.9998 20.2835 10.9998 20.0001ZM11.9998 12.0001C12.2832 12.0001 12.5207 11.9043 12.7123 11.7126C12.904 11.521 12.9998 11.2835 12.9998 11.0001V5.00012C12.9998 4.71679 12.904 4.47929 12.7123 4.28762C12.5207 4.09596 12.2832 4.00012 11.9998 4.00012C11.7165 4.00012 11.479 4.09596 11.2873 4.28762C11.0957 4.47929 10.9998 4.71679 10.9998 5.00012V11.0001C10.9998 11.2835 11.0957 11.521 11.2873 11.7126C11.479 11.9043 11.7165 12.0001 11.9998 12.0001Z" />
</svg>
