<svg width="24" height="24" viewBox="0 0 24 24" fill="none" xmlns="http://www.w3.org/2000/svg">
<path d="M18 10.5L21.15 7.34998C21.3166 7.18331 21.5 7.14164 21.7 7.22498C21.9 7.30831 22 7.46664 22 7.69998V16.3C22 16.5333 21.9 16.6916 21.7 16.775C21.5 16.8583 21.3166 16.8166 21.15 16.65L18 13.5C18 13.7833 17.9041 14.0208 17.7125 14.2125C17.5208 14.4041 17.2833 14.5 17 14.5C16.7166 14.5 16.4791 14.4041 16.2875 14.2125C16.0958 14.0208 16 13.7833 16 13.5V5.99998H8.99995C8.66662 5.99998 8.41662 5.89581 8.24995 5.68748C8.08328 5.47914 7.99995 5.24998 7.99995 4.99998C7.99995 4.74998 8.08328 4.52081 8.24995 4.31248C8.41662 4.10414 8.66662 3.99998 8.99995 3.99998H16C16.55 3.99998 17.0208 4.19581 17.4125 4.58748C17.8041 4.97914 18 5.44998 18 5.99998V10.5ZM19.85 22.65L1.34995 4.14998C1.16662 3.96664 1.07495 3.73331 1.07495 3.44998C1.07495 3.16664 1.16662 2.93331 1.34995 2.74998C1.53328 2.56664 1.76662 2.47498 2.04995 2.47498C2.33328 2.47498 2.56662 2.56664 2.74995 2.74998L21.25 21.25C21.4333 21.4333 21.525 21.6666 21.525 21.95C21.525 22.2333 21.4333 22.4666 21.25 22.65C21.0666 22.8333 20.8333 22.925 20.55 22.925C20.2666 22.925 20.0333 22.8333 19.85 22.65ZM3.99995 3.99998L5.99995 5.99998H3.99995V18H16V16L18 18C18 18.55 17.8041 19.0208 17.4125 19.4125C17.0208 19.8041 16.55 20 16 20H3.99995C3.44995 20 2.97912 19.8041 2.58745 19.4125C2.19578 19.0208 1.99995 18.55 1.99995 18V5.99998C1.99995 5.44998 2.19578 4.97914 2.58745 4.58748C2.97912 4.19581 3.44995 3.99998 3.99995 3.99998Z" />
</svg>
